<svg width="300" height="200" xmlns="http://www.w3.org/2000/svg">
  
  <rect width="300" height="200" fill="#f8f9fa"/>
  
  
  <rect x="60" y="40" width="180" height="120" fill="#8d6e63" stroke="#6d4c41" stroke-width="2" rx="5"/>
  
  
  <line x1="65" y1="50" x2="235" y2="50" stroke="#6d4c41" stroke-width="1"/>
  <line x1="65" y1="60" x2="235" y2="60" stroke="#6d4c41" stroke-width="1"/>
  <line x1="65" y1="70" x2="235" y2="70" stroke="#6d4c41" stroke-width="1"/>
  
  
  <rect x="70" y="80" width="160" height="8" fill="#a1887f" rx="4"/>
  <rect x="70" y="110" width="160" height="8" fill="#a1887f" rx="4"/>
  <rect x="70" y="140" width="160" height="8" fill="#a1887f" rx="4"/>
  
  
  <circle cx="80" cy="75" r="2" fill="#5d4037"/>
  <circle cx="80" cy="95" r="2" fill="#5d4037"/>
  <circle cx="80" cy="125" r="2" fill="#5d4037"/>
  <circle cx="220" cy="75" r="2" fill="#5d4037"/>
  <circle cx="220" cy="95" r="2" fill="#5d4037"/>
  <circle cx="220" cy="125" r="2" fill="#5d4037"/>
  
  
  
  <rect x="85" y="72" width="6" height="15" fill="#2196f3"/>
  <rect x="92" y="72" width="6" height="15" fill="#4caf50"/>
  <rect x="99" y="72" width="6" height="15" fill="#ff9800"/>
  
  
  <rect x="180" y="75" width="20" height="10" fill="#ffc107" rx="2"/>
  <circle cx="210" cy="80" r="5" fill="#9e9e9e"/>
  
  
  <circle cx="130" cy="135" r="8" fill="#4caf50"/>
  <rect x="127" y="135" width="6" height="8" fill="#8bc34a"/>
  
  
  <line x1="60" y1="100" x2="50" y2="100" stroke="#4caf50" stroke-width="2"/>
  <line x1="240" y1="100" x2="250" y2="100" stroke="#4caf50" stroke-width="2"/>
  <polygon points="45,95 50,100 45,105" fill="#4caf50"/>
  <polygon points="255,95 250,100 255,105" fill="#4caf50"/>
  
  
  <text x="150" y="25" text-anchor="middle" font-family="Arial, sans-serif" font-size="16" font-weight="bold" fill="#2c5530">BambooShelf</text>
  <text x="150" y="185" text-anchor="middle" font-family="Arial, sans-serif" font-size="10" fill="#666">Modulares Bambus-Regal</text>
</svg>