<svg width="400" height="300" xmlns="http://www.w3.org/2000/svg">
  
  <rect width="400" height="300" fill="#607d8b"/>
  
  
  
  <rect x="60" y="120" width="80" height="60" fill="white" opacity="0.9" rx="8" stroke="#4caf50" stroke-width="3"/>
  <rect x="70" y="130" width="60" height="8" fill="#8d6e63" rx="4"/>
  <rect x="75" y="145" width="20" height="15" fill="#424242" rx="2"/>
  <rect x="105" y="145" width="20" height="15" fill="#424242" rx="2"/>
  <ellipse cx="100" cy="170" rx="15" ry="8" fill="#616161"/>
  
  
  <rect x="160" y="120" width="80" height="60" fill="white" opacity="0.9" rx="8" stroke="#ff9800" stroke-width="3"/>
  <rect x="170" y="130" width="20" height="25" fill="#f5f5f5" rx="2"/>
  <rect x="175" y="135" width="6" height="15" fill="#2196f3" rx="3"/>
  <rect x="185" y="135" width="6" height="15" fill="#4caf50" rx="3"/>
  <rect x="195" y="135" width="6" height="15" fill="#ff9800" rx="3"/>
  <rect x="210" y="140" width="20" height="15" fill="#ffeb3b" opacity="0.8" rx="2"/>
  
  
  <rect x="260" y="120" width="80" height="60" fill="white" opacity="0.9" rx="8" stroke="#9c27b0" stroke-width="3"/>
  <rect x="270" y="130" width="30" height="20" fill="#424242" rx="2"/>
  <rect x="275" y="135" width="20" height="10" fill="#1976d2" rx="1"/>
  <rect x="310" y="140" width="20" height="15" fill="#616161" rx="2"/>
  <rect x="315" y="145" width="10" height="8" fill="#1976d2" rx="1"/>
  
  
  <circle cx="85" cy="105" r="15" fill="#e91e63"/>
  <text x="85" y="108" text-anchor="middle" font-family="Arial, sans-serif" font-size="10" font-weight="bold" fill="white">-20%</text>
  
  <circle cx="185" cy="105" r="15" fill="#e91e63"/>
  <text x="185" y="108" text-anchor="middle" font-family="Arial, sans-serif" font-size="10" font-weight="bold" fill="white">-15%</text>
  
  <circle cx="285" cy="105" r="15" fill="#e91e63"/>
  <text x="285" y="108" text-anchor="middle" font-family="Arial, sans-serif" font-size="10" font-weight="bold" fill="white">-25%</text>
  
  
  <path d="M 140 150 Q 160 140 180 150" stroke="#4caf50" stroke-width="2" fill="none" stroke-dasharray="5,5"/>
  <path d="M 240 150 Q 250 140 270 150" stroke="#4caf50" stroke-width="2" fill="none" stroke-dasharray="5,5"/>
  
  
  <rect x="180" y="200" width="40" height="25" fill="white" opacity="0.9" rx="3"/>
  <circle cx="185" cy="230" r="4" fill="#666"/>
  <circle cx="210" cy="230" r="4" fill="#666"/>
  <rect x="175" y="205" width="35" height="15" fill="none" stroke="#666" stroke-width="2" rx="2"/>
  <path d="M 160 205 L 175 205 L 180 215" stroke="#666" stroke-width="2" fill="none"/>
  
  
  <text x="100" y="195" text-anchor="middle" font-family="Arial, sans-serif" font-size="8" fill="white">Starter</text>
  <text x="200" y="195" text-anchor="middle" font-family="Arial, sans-serif" font-size="8" fill="white">Office</text>
  <text x="300" y="195" text-anchor="middle" font-family="Arial, sans-serif" font-size="8" fill="white">Premium</text>
  
  
  <circle cx="60" cy="60" r="20" fill="white" opacity="0.9"/>
  <text x="60" y="66" text-anchor="middle" font-family="Arial, sans-serif" font-size="14" fill="#607d8b">💰</text>
  
  <circle cx="340" cy="60" r="20" fill="white" opacity="0.9"/>
  <text x="340" y="66" text-anchor="middle" font-family="Arial, sans-serif" font-size="14" fill="#607d8b">📦</text>
  
  
  <rect x="150" y="85" width="100" height="20" fill="#4caf50" opacity="0.9" rx="10"/>
  <text x="200" y="97" text-anchor="middle" font-family="Arial, sans-serif" font-size="10" font-weight="bold" fill="white">BESTES ANGEBOT</text>
  
  
  <text x="200" y="40" text-anchor="middle" font-family="Arial, sans-serif" font-size="24" font-weight="bold" fill="white">Bundle-Angebote</text>
  <text x="200" y="270" text-anchor="middle" font-family="Arial, sans-serif" font-size="14" fill="white" opacity="0.9">Komplette Büro-Pakete</text>
</svg>