<svg width="300" height="200" xmlns="http://www.w3.org/2000/svg">
  
  <rect width="300" height="200" fill="#f8f9fa"/>
  
  
  <rect x="50" y="80" width="200" height="80" fill="#8d6e63" rx="5"/>
  
  
  <pattern id="cork" patternUnits="userSpaceOnUse" width="8" height="8">
    <rect width="8" height="8" fill="#8d6e63"/>
    <circle cx="2" cy="2" r="1" fill="#6d4c41"/>
    <circle cx="6" cy="6" r="1" fill="#6d4c41"/>
    <circle cx="4" cy="1" r="0.5" fill="#5d4037"/>
    <circle cx="1" cy="6" r="0.5" fill="#5d4037"/>
  </pattern>
  <rect x="52" y="82" width="196" height="76" fill="url(#cork)" rx="3"/>
  
  
  <line x1="120" y1="85" x2="120" y2="155" stroke="#5d4037" stroke-width="2"/>
  <line x1="180" y1="85" x2="180" y2="155" stroke="#5d4037" stroke-width="2"/>
  <line x1="55" y1="120" x2="245" y2="120" stroke="#5d4037" stroke-width="2"/>
  
  
  
  <rect x="60" y="90" width="3" height="25" fill="#2196f3"/>
  <rect x="65" y="90" width="3" height="25" fill="#ff9800"/>
  <rect x="70" y="90" width="3" height="25" fill="#4caf50"/>
  
  
  <ellipse cx="90" cy="100" rx="6" ry="3" fill="#9e9e9e"/>
  <ellipse cx="100" cy="105" rx="6" ry="3" fill="#9e9e9e"/>
  
  
  <rect x="130" y="95" width="15" height="15" fill="#ffeb3b" rx="1"/>
  <rect x="150" y="95" width="15" height="15" fill="#ff9800" rx="1"/>
  
  
  <rect x="190" y="100" width="8" height="8" fill="#e91e63" rx="2"/>
  <rect x="200" y="100" width="8" height="8" fill="#9c27b0" rx="2"/>
  
  
  <rect x="60" y="130" width="25" height="15" fill="white" stroke="#ddd" rx="1"/>
  <rect x="90" y="130" width="25" height="15" fill="white" stroke="#ddd" rx="1"/>
  
  
  <rect x="140" y="135" width="12" height="12" fill="#795548" rx="1"/>
  <rect x="155" y="135" width="12" height="12" fill="#607d8b" rx="1"/>
  
  
  <rect x="190" y="135" width="8" height="15" fill="#424242" rx="2"/>
  <rect x="205" y="135" width="8" height="15" fill="#1976d2" rx="2"/>
  
  
  <circle cx="80" cy="40" r="15" fill="#4caf50"/>
  <text x="80" y="45" text-anchor="middle" font-family="Arial, sans-serif" font-size="12" fill="white">🌿</text>
  
  
  <text x="150" y="25" text-anchor="middle" font-family="Arial, sans-serif" font-size="16" font-weight="bold" fill="#2c5530">Cork Organizer</text>
  <text x="150" y="185" text-anchor="middle" font-family="Arial, sans-serif" font-size="10" fill="#666">Kork-Schreibtisch-Organizer</text>
</svg>