<svg width="400" height="200" xmlns="http://www.w3.org/2000/svg">
  
  <rect width="400" height="200" fill="#f8f9fa"/>
  
  
  <rect x="50" y="120" width="300" height="20" fill="#8d6e63" rx="10"/>
  
  
  <rect x="60" y="140" width="15" height="50" fill="#5d4037"/>
  <rect x="325" y="140" width="15" height="50" fill="#5d4037"/>
  
  
  <line x1="50" y1="125" x2="350" y2="125" stroke="#6d4c41" stroke-width="1"/>
  <line x1="50" y1="130" x2="350" y2="130" stroke="#6d4c41" stroke-width="1"/>
  <line x1="50" y1="135" x2="350" y2="135" stroke="#6d4c41" stroke-width="1"/>
  
  
  <rect x="150" y="100" width="100" height="15" fill="#424242" rx="5"/>
  <rect x="155" y="85" width="90" height="15" fill="#1976d2" rx="2"/>
  
  
  <ellipse cx="100" cy="110" rx="15" ry="8" fill="#4caf50"/>
  <rect x="95" y="110" width="10" height="15" fill="#8bc34a"/>
  
  
  <rect x="250" y="110" width="8" height="8" fill="#ff9800"/>
  <rect x="270" y="105" width="12" height="12" fill="#2196f3"/>
  
  
  <circle cx="320" cy="50" r="20" fill="#4caf50" opacity="0.8"/>
  <text x="320" y="55" text-anchor="middle" font-family="Arial, sans-serif" font-size="16" fill="white">♻</text>
  
  
  <text x="200" y="30" text-anchor="middle" font-family="Arial, sans-serif" font-size="16" font-weight="bold" fill="#2c5530">ÖkoSchreibtisch Setup</text>
  
  
  <circle cx="200" cy="100" r="25" fill="rgba(0,0,0,0.7)"/>
  <polygon points="190,90 190,110 215,100" fill="white"/>
</svg>