<svg width="300" height="200" xmlns="http://www.w3.org/2000/svg">
  
  <rect width="300" height="200" fill="#f8f9fa"/>
  
  
  <rect x="120" y="40" width="60" height="80" fill="#424242" rx="20"/>
  <rect x="125" y="45" width="50" height="70" fill="#616161" rx="15"/>
  
  
  <pattern id="mesh" patternUnits="userSpaceOnUse" width="4" height="4">
    <rect width="4" height="4" fill="#616161"/>
    <circle cx="2" cy="2" r="0.5" fill="#9e9e9e"/>
  </pattern>
  <rect x="130" y="50" width="40" height="60" fill="url(#mesh)" rx="10"/>
  
  
  <ellipse cx="150" cy="120" rx="40" ry="15" fill="#424242"/>
  <ellipse cx="150" cy="118" rx="35" ry="12" fill="#616161"/>
  
  
  <rect x="105" y="100" width="20" height="8" fill="#424242" rx="4"/>
  <rect x="175" y="100" width="20" height="8" fill="#424242" rx="4"/>
  
  
  <rect x="145" y="135" width="10" height="20" fill="#757575"/>
  
  
  <circle cx="125" cy="160" r="6" fill="#9e9e9e"/>
  <circle cx="150" cy="165" r="6" fill="#9e9e9e"/>
  <circle cx="175" cy="160" r="6" fill="#9e9e9e"/>
  
  
  <circle cx="80" cy="60" r="12" fill="#4caf50"/>
  <text x="80" y="65" text-anchor="middle" font-family="Arial, sans-serif" font-size="10" fill="white">♻</text>
  <text x="80" y="80" text-anchor="middle" font-family="Arial, sans-serif" font-size="8" fill="#4caf50">85%</text>
  
  
  <path d="M 220 80 Q 240 90 220 100" stroke="#ff9800" stroke-width="2" fill="none"/>
  <text x="230" y="95" font-family="Arial, sans-serif" font-size="8" fill="#ff9800">Ergo</text>
  
  
  <text x="150" y="20" text-anchor="middle" font-family="Arial, sans-serif" font-size="16" font-weight="bold" fill="#2c5530">ErgoChair Green</text>
  <text x="150" y="35" text-anchor="middle" font-family="Arial, sans-serif" font-size="10" fill="#666">Ergonomischer Bürostuhl aus recycelten Materialien</text>
</svg>