<svg width="400" height="300" xmlns="http://www.w3.org/2000/svg">
  
  <rect width="400" height="300" fill="#2196f3"/>
  
  
  
  <rect x="150" y="180" width="100" height="60" fill="white" opacity="0.9" rx="5"/>
  <rect x="140" y="160" width="120" height="25" fill="#8d6e63" rx="8"/>
  
  
  <rect x="160" y="240" width="8" height="30" fill="#666" rx="2"/>
  <rect x="180" y="245" width="8" height="25" fill="#666" rx="2"/>
  <rect x="200" y="240" width="8" height="30" fill="#666" rx="2"/>
  <rect x="220" y="245" width="8" height="25" fill="#666" rx="2"/>
  
  
  <circle cx="164" cy="250" r="2" fill="#4caf50"/>
  <circle cx="184" cy="255" r="2" fill="#4caf50"/>
  <circle cx="204" cy="250" r="2" fill="#4caf50"/>
  <circle cx="224" cy="255" r="2" fill="#4caf50"/>
  
  
  <rect x="180" y="130" width="40" height="25" fill="#424242" rx="2"/>
  <rect x="185" y="135" width="30" height="15" fill="#1976d2" rx="1"/>
  
  
  <rect x="195" y="155" width="4" height="15" fill="#666"/>
  <rect x="185" y="157" width="20" height="3" fill="#666" rx="1"/>
  
  
  <ellipse cx="120" cy="200" rx="25" ry="15" fill="#616161"/>
  <rect x="110" y="185" width="20" height="30" fill="#757575" rx="8"/>
  
  
  <rect x="95" y="170" width="15" height="40" fill="#757575" rx="7"/>
  
  
  <rect x="100" y="185" width="12" height="8" fill="#616161" rx="4"/>
  <rect x="128" y="185" width="12" height="8" fill="#616161" rx="4"/>
  
  
  <rect x="110" y="220" width="30" height="8" fill="#9e9e9e" rx="4"/>
  
  
  <rect x="160" y="170" width="60" height="8" fill="#ffeb3b" opacity="0.8" rx="4"/>
  
  
  <rect x="280" y="140" width="20" height="40" fill="white" opacity="0.9" rx="2"/>
  <rect x="285" y="145" width="10" height="30" fill="#f5f5f5" rx="1"/>
  
  
  
  <rect x="160" y="200" width="60" height="20" fill="white" opacity="0.7" rx="3"/>
  
  
  <path d="M 200 180 Q 220 190 240 180" stroke="#666" stroke-width="2" fill="none"/>
  <circle cx="240" cy="180" r="4" fill="#666"/>
  
  
  <ellipse cx="320" cy="160" rx="15" ry="8" fill="white" opacity="0.9"/>
  <rect x="315" y="160" width="10" height="20" fill="#666" rx="2"/>
  <rect x="310" y="180" width="20" height="5" fill="#666" rx="2"/>
  
  
  <line x1="320" y1="150" x2="320" y2="135" stroke="#ffeb3b" stroke-width="2" opacity="0.7"/>
  <line x1="310" y1="155" x2="300" y2="145" stroke="#ffeb3b" stroke-width="2" opacity="0.7"/>
  <line x1="330" y1="155" x2="340" y2="145" stroke="#ffeb3b" stroke-width="2" opacity="0.7"/>
  
  
  <circle cx="60" cy="60" r="20" fill="white" opacity="0.9"/>
  <text x="60" y="66" text-anchor="middle" font-family="Arial, sans-serif" font-size="14" fill="#2196f3">⚡</text>
  
  <circle cx="340" cy="60" r="20" fill="white" opacity="0.9"/>
  <text x="340" y="66" text-anchor="middle" font-family="Arial, sans-serif" font-size="14" fill="#2196f3">✓</text>
  
  
  <path d="M 80 120 L 90 130" stroke="white" stroke-width="2" fill="none"/>
  <polygon points="87,125 90,130 85,132" fill="white"/>
  <text x="70" y="115" font-family="Arial, sans-serif" font-size="10" fill="white">90°</text>
  
  
  <text x="200" y="40" text-anchor="middle" font-family="Arial, sans-serif" font-size="20" font-weight="bold" fill="white">Ergonomischer Arbeitsplatz</text>
  <text x="200" y="280" text-anchor="middle" font-family="Arial, sans-serif" font-size="12" fill="white" opacity="0.9">Gesunde Körperhaltung und Komfort</text>
</svg>