<svg width="400" height="300" xmlns="http://www.w3.org/2000/svg">
  
  <rect width="400" height="300" fill="#e74c3c"/>
  
  
  
  <rect x="100" y="120" width="200" height="120" fill="white" opacity="0.9" rx="8"/>
  
  
  <rect x="110" y="130" width="180" height="100" fill="#8d6e63" opacity="0.8" rx="5"/>
  
  
  <line x1="110" y1="140" x2="290" y2="140" stroke="#6d4c41" stroke-width="1"/>
  <line x1="110" y1="160" x2="290" y2="160" stroke="#6d4c41" stroke-width="1"/>
  <line x1="110" y1="180" x2="290" y2="180" stroke="#6d4c41" stroke-width="1"/>
  <line x1="110" y1="200" x2="290" y2="200" stroke="#6d4c41" stroke-width="1"/>
  <line x1="110" y1="220" x2="290" y2="220" stroke="#6d4c41" stroke-width="1"/>
  
  
  <rect x="120" y="140" width="50" height="80" fill="white" opacity="0.7" rx="3"/>
  <rect x="180" y="140" width="50" height="80" fill="white" opacity="0.7" rx="3"/>
  <rect x="240" y="140" width="40" height="80" fill="white" opacity="0.7" rx="3"/>
  
  
  
  <rect x="125" y="150" width="6" height="20" fill="#2196f3"/>
  <rect x="135" y="150" width="6" height="20" fill="#4caf50"/>
  <rect x="145" y="150" width="6" height="20" fill="#ff9800"/>
  
  
  <circle cx="200" cy="160" r="5" fill="#9e9e9e"/>
  <rect x="195" y="175" width="10" height="8" fill="#ffc107" rx="1"/>
  
  
  <rect x="245" y="155" width="15" height="15" fill="#795548" rx="2"/>
  <rect x="245" y="175" width="15" height="15" fill="#607d8b" rx="2"/>
  
  
  <circle cx="90" cy="180" r="8" fill="#4caf50" opacity="0.8"/>
  <text x="90" y="185" text-anchor="middle" font-family="Arial, sans-serif" font-size="10" fill="white">+</text>
  
  <circle cx="310" cy="180" r="8" fill="#4caf50" opacity="0.8"/>
  <text x="310" y="185" text-anchor="middle" font-family="Arial, sans-serif" font-size="10" fill="white">+</text>
  
  
  <path d="M 150 100 Q 200 80 250 100" stroke="white" stroke-width="3" fill="none"/>
  <polygon points="245,95 250,100 245,105" fill="white"/>
  
  <path d="M 250 100 Q 200 120 150 100" stroke="white" stroke-width="3" fill="none"/>
  <polygon points="155,95 150,100 155,105" fill="white"/>
  
  
  <text x="200" y="40" text-anchor="middle" font-family="Arial, sans-serif" font-size="24" font-weight="bold" fill="white">FlexLager System</text>
  
  
  <circle cx="60" cy="60" r="20" fill="white" opacity="0.9"/>
  <text x="60" y="66" text-anchor="middle" font-family="Arial, sans-serif" font-size="14" fill="#4caf50">🎋</text>
  
  
  <circle cx="340" cy="60" r="20" fill="white" opacity="0.9"/>
  <rect x="332" y="52" width="6" height="6" fill="#e74c3c"/>
  <rect x="340" y="52" width="6" height="6" fill="#e74c3c"/>
  <rect x="348" y="52" width="6" height="6" fill="#e74c3c"/>
  <rect x="332" y="60" width="6" height="6" fill="#e74c3c"/>
  <rect x="340" y="60" width="6" height="6" fill="#e74c3c"/>
  <rect x="348" y="60" width="6" height="6" fill="#e74c3c"/>
</svg>