<svg width="300" height="200" xmlns="http://www.w3.org/2000/svg">
  
  <rect width="300" height="200" fill="#f8f9fa"/>
  
  
  <rect x="50" y="60" width="200" height="120" fill="#4caf50" rx="10"/>
  <rect x="55" y="65" width="190" height="110" fill="#66bb6a" rx="8"/>
  
  
  <rect x="70" y="80" width="160" height="30" fill="white" rx="5"/>
  <text x="150" y="98" text-anchor="middle" font-family="Arial, sans-serif" font-size="14" font-weight="bold" fill="#2c5530">Green Starter Kit</text>
  
  
  
  <rect x="80" y="120" width="25" height="20" fill="#8bc34a" rx="2"/>
  <rect x="85" y="115" width="25" height="20" fill="#9ccc65" rx="2"/>
  <rect x="90" y="110" width="25" height="20" fill="#aed581" rx="2"/>
  
  
  <rect x="130" y="125" width="3" height="25" fill="#8d6e63"/>
  <rect x="135" y="125" width="3" height="25" fill="#8d6e63"/>
  <rect x="140" y="125" width="3" height="25" fill="#8d6e63"/>
  
  
  <rect x="160" y="115" width="15" height="35" fill="#2196f3" rx="7"/>
  <rect x="162" y="110" width="11" height="8" fill="#1976d2" rx="3"/>
  
  
  <circle cx="200" cy="140" r="8" fill="#4caf50"/>
  <rect x="197" y="140" width="6" height="10" fill="#8bc34a"/>
  
  
  <rect x="210" y="130" width="20" height="15" fill="#ffc107" rx="2"/>
  
  
  <circle cx="220" cy="40" r="15" fill="#4caf50"/>
  <text x="220" y="45" text-anchor="middle" font-family="Arial, sans-serif" font-size="12" fill="white">♻</text>
  
  <circle cx="80" cy="40" r="12" fill="#2e7d32"/>
  <text x="80" y="45" text-anchor="middle" font-family="Arial, sans-serif" font-size="10" fill="white">BIO</text>
  
  
  <text x="150" y="20" text-anchor="middle" font-family="Arial, sans-serif" font-size="16" font-weight="bold" fill="#2c5530">Green Starter Kit</text>
  <text x="150" y="35" text-anchor="middle" font-family="Arial, sans-serif" font-size="10" fill="#666">Komplettes umweltfreundliches Büromaterial-Set</text>
</svg>