<svg width="400" height="300" xmlns="http://www.w3.org/2000/svg">
  
  <rect width="400" height="300" fill="#e74c3c"/>
  
  
  
  <rect x="80" y="140" width="100" height="60" fill="white" opacity="0.95" rx="5"/>
  <rect x="70" y="120" width="120" height="25" fill="#8d6e63" rx="8"/>
  
  
  <rect x="85" y="200" width="8" height="40" fill="#666" rx="2"/>
  <rect x="105" y="205" width="8" height="35" fill="#666" rx="2"/>
  <rect x="155" y="205" width="8" height="35" fill="#666" rx="2"/>
  <rect x="175" y="200" width="8" height="40" fill="#666" rx="2"/>
  
  
  <ellipse cx="250" cy="190" rx="30" ry="18" fill="#616161"/>
  <rect x="235" y="170" width="30" height="35" fill="#757575" rx="10"/>
  
  
  <rect x="215" y="150" width="20" height="50" fill="#757575" rx="10"/>
  
  
  <rect x="225" y="175" width="15" height="10" fill="#616161" rx="5"/>
  <rect x="260" y="175" width="15" height="10" fill="#616161" rx="5"/>
  
  
  <circle cx="250" cy="208" r="25" fill="#424242"/>
  <rect x="235" y="220" width="30" height="8" fill="#424242" rx="4"/>
  
  
  <rect x="300" y="160" width="60" height="80" fill="white" opacity="0.9" rx="4"/>
  <rect x="305" y="165" width="50" height="70" fill="#f5f5f5" rx="2"/>
  
  
  <circle cx="315" cy="185" r="3" fill="#666"/>
  <circle cx="315" cy="215" r="3" fill="#666"/>
  <circle cx="345" cy="185" r="3" fill="#666"/>
  <circle cx="345" cy="215" r="3" fill="#666"/>
  
  
  <rect x="100" y="100" width="50" height="30" fill="#424242" rx="3"/>
  <rect x="105" y="105" width="40" height="20" fill="#1976d2" rx="2"/>
  
  
  <rect x="120" y="130" width="10" height="15" fill="#666"/>
  <rect x="115" y="140" width="20" height="5" fill="#666" rx="2"/>
  
  
  <rect x="160" y="115" width="15" height="20" fill="#ffeb3b" opacity="0.8" rx="2"/>
  <circle cx="85" cy="125" r="4" fill="#4caf50"/>
  <circle cx="95" cy="125" r="4" fill="#ff9800"/>
  
  
  <circle cx="60" cy="60" r="20" fill="white" opacity="0.9"/>
  <text x="60" y="66" text-anchor="middle" font-family="Arial, sans-serif" font-size="14" fill="#e74c3c">♻</text>
  
  <circle cx="340" cy="60" r="20" fill="white" opacity="0.9"/>
  <text x="340" y="66" text-anchor="middle" font-family="Arial, sans-serif" font-size="14" fill="#e74c3c">🌿</text>
  
  
  <text x="200" y="40" text-anchor="middle" font-family="Arial, sans-serif" font-size="24" font-weight="bold" fill="white">Büromöbel</text>
  <text x="200" y="270" text-anchor="middle" font-family="Arial, sans-serif" font-size="14" fill="white" opacity="0.9">Nachhaltige Arbeitsplätze</text>
</svg>