<svg width="1200" height="600" xmlns="http://www.w3.org/2000/svg">
  <defs>
    <linearGradient id="heroGrad" x1="0%" y1="0%" x2="100%" y2="100%">
      <stop offset="0%" style="stop-color:#a8e6cf;stop-opacity:1" />
      <stop offset="100%" style="stop-color:#2c5530;stop-opacity:1" />
    </linearGradient>
  </defs>
  
  
  <rect width="1200" height="600" fill="url(#heroGrad)"/>
  
  
  
  <rect x="0" y="450" width="1200" height="150" fill="#f5f5f5" opacity="0.3"/>
  
  
  <rect x="50" y="100" width="200" height="300" fill="white" opacity="0.8" rx="10"/>
  <rect x="950" y="100" width="200" height="300" fill="white" opacity="0.8" rx="10"/>
  
  
  <line x1="150" y1="100" x2="150" y2="400" stroke="#ddd" stroke-width="3"/>
  <line x1="50" y1="250" x2="250" y2="250" stroke="#ddd" stroke-width="3"/>
  <line x1="1050" y1="100" x2="1050" y2="400" stroke="#ddd" stroke-width="3"/>
  <line x1="950" y1="250" x2="1150" y2="250" stroke="#ddd" stroke-width="3"/>
  
  
  
  <rect x="300" y="350" width="120" height="60" fill="#a1887f" rx="8"/>
  <rect x="290" y="330" width="140" height="25" fill="#8d6e63" rx="12"/>
  
  <line x1="290" y1="335" x2="430" y2="335" stroke="#6d4c41" stroke-width="1"/>
  <line x1="290" y1="345" x2="430" y2="345" stroke="#6d4c41" stroke-width="1"/>
  <line x1="290" y1="350" x2="430" y2="350" stroke="#6d4c41" stroke-width="1"/>
  
  
  <rect x="330" y="310" width="60" height="25" fill="#424242" rx="3"/>
  <rect x="335" y="295" width="50" height="20" fill="#1976d2" rx="2"/>
  
  
  <circle cx="250" cy="380" r="25" fill="#616161"/>
  <rect x="240" y="380" width="20" height="30" fill="#757575" rx="10"/>
  
  
  <circle cx="180" cy="420" r="20" fill="#4caf50"/>
  <rect x="175" y="420" width="10" height="15" fill="#66bb6a"/>
  <circle cx="175" cy="415" r="5" fill="#4caf50"/>
  <circle cx="185" cy="410" r="7" fill="#4caf50"/>
  
  <circle cx="500" cy="430" r="25" fill="#4caf50"/>
  <rect x="492" y="430" width="16" height="20" fill="#66bb6a"/>
  <circle cx="490" cy="420" r="8" fill="#4caf50"/>
  <circle cx="510" cy="415" r="6" fill="#4caf50"/>
  
  
  <rect x="600" y="320" width="80" height="100" fill="#8d6e63" rx="5"/>
  <rect x="610" y="330" width="60" height="80" fill="#a1887f" rx="3"/>
  
  <line x1="610" y1="350" x2="670" y2="350" stroke="#6d4c41" stroke-width="2"/>
  <line x1="610" y1="370" x2="670" y2="370" stroke="#6d4c41" stroke-width="2"/>
  <line x1="610" y1="390" x2="670" y2="390" stroke="#6d4c41" stroke-width="2"/>
  
  
  <rect x="400" y="80" width="400" height="15" fill="white" opacity="0.9" rx="7"/>
  <circle cx="450" cy="87" r="3" fill="#4caf50"/>
  <circle cx="500" cy="87" r="3" fill="#4caf50"/>
  <circle cx="550" cy="87" r="3" fill="#4caf50"/>
  <circle cx="600" cy="87" r="3" fill="#4caf50"/>
  <circle cx="650" cy="87" r="3" fill="#4caf50"/>
  <circle cx="700" cy="87" r="3" fill="#4caf50"/>
  <circle cx="750" cy="87" r="3" fill="#4caf50"/>
  
  
  
  <circle cx="100" cy="500" r="30" fill="white" opacity="0.9"/>
  <text x="100" y="510" text-anchor="middle" font-family="Arial, sans-serif" font-size="24" fill="#4caf50">♻</text>
  
  
  <circle cx="200" cy="500" r="30" fill="white" opacity="0.9"/>
  <text x="200" y="510" text-anchor="middle" font-family="Arial, sans-serif" font-size="24" fill="#4caf50">⚡</text>
  
  
  <circle cx="300" cy="500" r="30" fill="white" opacity="0.9"/>
  <text x="300" y="510" text-anchor="middle" font-family="Arial, sans-serif" font-size="24" fill="#4caf50">🏢</text>
  
  
  <text x="600" y="200" text-anchor="middle" font-family="Arial, sans-serif" font-size="48" font-weight="bold" fill="white">Nachhaltige Bürolösungen</text>
  <text x="600" y="250" text-anchor="middle" font-family="Arial, sans-serif" font-size="32" fill="white">für moderne Arbeitsplätze</text>
  
  
  <text x="600" y="320" text-anchor="middle" font-family="Arial, sans-serif" font-size="18" fill="white" opacity="0.9">Verwandeln Sie Ihr Büro mit umweltfreundlichen</text>
  <text x="600" y="345" text-anchor="middle" font-family="Arial, sans-serif" font-size="18" fill="white" opacity="0.9">Produkten und professioneller Arbeitsplatzgestaltung.</text>
  
  
  <rect x="750" y="450" width="350" height="120" fill="white" opacity="0.1" rx="10"/>
  <text x="850" y="480" text-anchor="middle" font-family="Arial, sans-serif" font-size="16" fill="white" font-weight="bold">5.000+ Unternehmen vertrauen uns</text>
  <text x="925" y="510" text-anchor="middle" font-family="Arial, sans-serif" font-size="14" fill="white">Gesündere und produktivere</text>
  <text x="925" y="530" text-anchor="middle" font-family="Arial, sans-serif" font-size="14" fill="white">Arbeitsumgebungen schaffen</text>
</svg>