<svg width="400" height="300" xmlns="http://www.w3.org/2000/svg">
  
  <rect width="400" height="300" fill="#f8f9fa"/>
  
  
  <text x="200" y="25" text-anchor="middle" font-family="Arial, sans-serif" font-size="16" font-weight="bold" fill="#2c5530">Nachhaltigkeits-Audit</text>
  
  
  <rect x="50" y="60" width="60" height="80" fill="#28a745" opacity="0.8"/>
  <rect x="130" y="80" width="60" height="60" fill="#6c757d" opacity="0.8"/>
  <rect x="210" y="50" width="60" height="90" fill="#28a745" opacity="0.8"/>
  <rect x="290" y="70" width="60" height="70" fill="#28a745" opacity="0.8"/>
  
  
  <text x="80" y="155" text-anchor="middle" font-family="Arial, sans-serif" font-size="12" fill="#495057">Energie</text>
  <text x="160" y="155" text-anchor="middle" font-family="Arial, sans-serif" font-size="12" fill="#495057">Ist-Zustand</text>
  <text x="240" y="155" text-anchor="middle" font-family="Arial, sans-serif" font-size="12" fill="#495057">Papier</text>
  <text x="320" y="155" text-anchor="middle" font-family="Arial, sans-serif" font-size="12" fill="#495057">Transport</text>
  
  
  <line x1="40" y1="50" x2="40" y2="150" stroke="#6c757d" stroke-width="2"/>
  <line x1="35" y1="50" x2="40" y2="50" stroke="#6c757d" stroke-width="2"/>
  <line x1="35" y1="100" x2="40" y2="100" stroke="#6c757d" stroke-width="2"/>
  <line x1="35" y1="150" x2="40" y2="150" stroke="#6c757d" stroke-width="2"/>
  
  
  <text x="30" y="55" text-anchor="end" font-family="Arial, sans-serif" font-size="10" fill="#6c757d">100%</text>
  <text x="30" y="105" text-anchor="end" font-family="Arial, sans-serif" font-size="10" fill="#6c757d">50%</text>
  <text x="30" y="155" text-anchor="end" font-family="Arial, sans-serif" font-size="10" fill="#6c757d">0%</text>
  
  
  <rect x="50" y="180" width="15" height="15" fill="#28a745" opacity="0.8"/>
  <text x="75" y="192" font-family="Arial, sans-serif" font-size="12" fill="#495057">Verbesserungspotential</text>
  
  <rect x="50" y="205" width="15" height="15" fill="#6c757d" opacity="0.8"/>
  <text x="75" y="217" font-family="Arial, sans-serif" font-size="12" fill="#495057">Aktueller Stand</text>
  
  
  <text x="200" y="250" text-anchor="middle" font-family="Arial, sans-serif" font-size="12" fill="#6c757d">Umweltauswirkungen Analyse</text>
  <text x="200" y="270" text-anchor="middle" font-family="Arial, sans-serif" font-size="11" fill="#6c757d">Potentiale zur CO₂-Reduzierung</text>
</svg>