<svg width="400" height="300" xmlns="http://www.w3.org/2000/svg">
  
  <rect width="400" height="300" fill="#f8f9fa"/>
  
  
  <rect x="50" y="200" width="300" height="80" fill="#e9ecef" stroke="#6c757d" stroke-width="2"/>
  
  
  <rect x="80" y="50" width="240" height="120" fill="white" stroke="#28a745" stroke-width="3"/>
  
  
  <text x="200" y="75" text-anchor="middle" font-family="Arial, sans-serif" font-size="14" font-weight="bold" fill="#2c5530">Team-Schulung</text>
  
  
  <circle cx="110" cy="95" r="3" fill="#28a745"/>
  <text x="125" y="100" font-family="Arial, sans-serif" font-size="12" fill="#495057">Nachhaltigkeit</text>
  
  <circle cx="110" cy="115" r="3" fill="#28a745"/>
  <text x="125" y="120" font-family="Arial, sans-serif" font-size="12" fill="#495057">Energieeffizienz</text>
  
  <circle cx="110" cy="135" r="3" fill="#28a745"/>
  <text x="125" y="140" font-family="Arial, sans-serif" font-size="12" fill="#495057">Wellness-Programme</text>
  
  <circle cx="110" cy="155" r="3" fill="#28a745"/>
  <text x="125" y="160" font-family="Arial, sans-serif" font-size="12" fill="#495057">Best Practices</text>
  
  
  
  <circle cx="150" cy="230" r="15" fill="#17a2b8"/>
  <rect x="140" y="245" width="20" height="25" fill="#17a2b8" rx="10"/>
  
  
  <circle cx="200" cy="230" r="15" fill="#6f42c1"/>
  <rect x="190" y="245" width="20" height="25" fill="#6f42c1" rx="10"/>
  
  
  <circle cx="250" cy="230" r="15" fill="#fd7e14"/>
  <rect x="240" y="245" width="20" height="25" fill="#fd7e14" rx="10"/>
  
  
  <circle cx="320" cy="140" r="12" fill="#28a745"/>
  <rect x="312" y="152" width="16" height="20" fill="#28a745" rx="8"/>
  
  
  <line x1="305" y1="145" x2="280" y2="110" stroke="#495057" stroke-width="2"/>
  
  
  <rect x="60" y="210" width="15" height="20" fill="#ffc107" rx="2"/>
  <rect x="80" y="215" width="15" height="15" fill="#ffc107" rx="2"/>
  
  
  <path d="M 350 80 L 360 90 L 380 70" stroke="#28a745" stroke-width="3" fill="none"/>
  <circle cx="365" cy="95" r="8" fill="none" stroke="#28a745" stroke-width="2"/>
  <text x="365" y="100" text-anchor="middle" font-family="Arial, sans-serif" font-size="8" fill="#28a745">✓</text>
</svg>