<svg width="400" height="300" xmlns="http://www.w3.org/2000/svg">
  
  <rect width="400" height="300" fill="#9c27b0"/>
  
  
  
  <rect x="120" y="120" width="80" height="50" fill="#424242" rx="4"/>
  <rect x="125" y="125" width="70" height="40" fill="#1976d2" rx="2"/>
  
  
  <rect x="155" y="170" width="10" height="20" fill="#666"/>
  <rect x="145" y="185" width="30" height="8" fill="#666" rx="4"/>
  
  
  <circle cx="185" cy="135" r="8" fill="#4caf50"/>
  <text x="185" y="139" text-anchor="middle" font-family="Arial, sans-serif" font-size="8" fill="white">A+</text>
  
  
  <rect x="260" y="140" width="60" height="40" fill="#616161" rx="3"/>
  <rect x="265" y="145" width="50" height="30" fill="#1976d2" rx="2"/>
  
  
  <rect x="270" y="175" width="40" height="15" fill="#757575" rx="1"/>
  <rect x="275" y="178" width="6" height="3" fill="#424242" rx="1"/>
  <rect x="285" y="178" width="6" height="3" fill="#424242" rx="1"/>
  <rect x="295" y="178" width="6" height="3" fill="#424242" rx="1"/>
  <rect x="275" y="183" width="6" height="3" fill="#424242" rx="1"/>
  <rect x="285" y="183" width="6" height="3" fill="#424242" rx="1"/>
  <rect x="295" y="183" width="6" height="3" fill="#424242" rx="1"/>
  
  
  <ellipse cx="80" cy="140" rx="20" ry="12" fill="white" opacity="0.9"/>
  <rect x="70" y="140" width="20" height="25" fill="#666" rx="3"/>
  <rect x="60" y="165" width="40" height="8" fill="#666" rx="4"/>
  
  
  <line x1="80" y1="125" x2="80" y2="110" stroke="#ffeb3b" stroke-width="2" opacity="0.8"/>
  <line x1="65" y1="135" x2="55" y2="125" stroke="#ffeb3b" stroke-width="2" opacity="0.8"/>
  <line x1="95" y1="135" x2="105" y2="125" stroke="#ffeb3b" stroke-width="2" opacity="0.8"/>
  
  
  <ellipse cx="320" cy="210" rx="25" ry="15" fill="white" opacity="0.8"/>
  <circle cx="320" cy="210" r="12" fill="#4caf50" opacity="0.7"/>
  <text x="320" y="214" text-anchor="middle" font-family="Arial, sans-serif" font-size="10" fill="white">⚡</text>
  
  
  <rect x="220" y="200" width="40" height="30" fill="#424242" rx="4"/>
  <rect x="225" y="205" width="30" height="20" fill="#1976d2" rx="2"/>
  
  
  <rect x="150" y="210" width="50" height="15" fill="#757575" rx="2"/>
  <circle cx="160" cy="217" r="3" fill="#424242"/>
  <circle cx="170" cy="217" r="3" fill="#424242"/>
  <circle cx="180" cy="217" r="3" fill="#424242"/>
  <circle cx="190" cy="217" r="3" fill="#424242"/>
  
  
  <circle cx="60" cy="60" r="20" fill="white" opacity="0.9"/>
  <text x="60" y="66" text-anchor="middle" font-family="Arial, sans-serif" font-size="14" fill="#9c27b0">⚡</text>
  
  <circle cx="340" cy="60" r="20" fill="white" opacity="0.9"/>
  <text x="340" y="66" text-anchor="middle" font-family="Arial, sans-serif" font-size="14" fill="#9c27b0">💾</text>
  
  
  <path d="M 200 145 Q 230 160 260 150" stroke="white" stroke-width="2" fill="none" opacity="0.6"/>
  <path d="M 160 190 Q 190 200 220 215" stroke="white" stroke-width="2" fill="none" opacity="0.6"/>
  
  
  <text x="200" y="40" text-anchor="middle" font-family="Arial, sans-serif" font-size="24" font-weight="bold" fill="white">Technologie</text>
  <text x="200" y="270" text-anchor="middle" font-family="Arial, sans-serif" font-size="14" fill="white" opacity="0.9">Energieeffiziente Geräte</text>
</svg>