<svg width="400" height="200" xmlns="http://www.w3.org/2000/svg">
  
  <rect width="400" height="200" fill="#f8f9fa"/>
  
  
  <rect x="50" y="120" width="300" height="20" fill="#8d6e63" rx="5"/>
  
  
  <rect x="150" y="80" width="100" height="40" fill="#424242" rx="5"/>
  <rect x="155" y="85" width="90" height="30" fill="#1976d2" rx="2"/>
  
  
  
  <rect x="70" y="100" width="60" height="20" fill="#e0e0e0" rx="2"/>
  <rect x="75" y="95" width="50" height="20" fill="#f5f5f5" rx="2"/>
  <rect x="80" y="90" width="40" height="20" fill="white" rx="2"/>
  
  
  <rect x="270" y="105" width="15" height="15" fill="#ff9800" rx="2"/>
  <rect x="290" y="100" width="12" height="20" fill="#2196f3" rx="2"/>
  <rect x="310" y="95" width="10" height="25" fill="#4caf50" rx="2"/>
  
  
  <path d="M 200 120 Q 220 130 240 120" stroke="#666" stroke-width="3" fill="none"/>
  <rect x="235" y="118" width="10" height="4" fill="#9e9e9e" rx="2"/>
  
  
  <rect x="60" y="140" width="30" height="8" fill="#ffeb3b" rx="1"/>
  <rect x="150" y="140" width="30" height="8" fill="#ffeb3b" rx="1"/>
  <rect x="240" y="140" width="30" height="8" fill="#ffeb3b" rx="1"/>
  
  
  <line x1="130" y1="90" x2="130" y2="140" stroke="#e0e0e0" stroke-width="1" stroke-dasharray="3,3"/>
  <line x1="270" y1="90" x2="270" y2="140" stroke="#e0e0e0" stroke-width="1" stroke-dasharray="3,3"/>
  
  
  <path d="M 100 160 L 100 145" stroke="#4caf50" stroke-width="2" fill="none" marker-end="url(#arrowhead)"/>
  <path d="M 200 160 L 200 145" stroke="#4caf50" stroke-width="2" fill="none" marker-end="url(#arrowhead)"/>
  <path d="M 300 160 L 300 145" stroke="#4caf50" stroke-width="2" fill="none" marker-end="url(#arrowhead)"/>
  
  
  <defs>
    <marker id="arrowhead" markerWidth="10" markerHeight="7" refX="9" refY="3.5" orient="auto">
      <polygon points="0 0, 10 3.5, 0 7" fill="#4caf50"/>
    </marker>
  </defs>
  
  
  <text x="200" y="25" text-anchor="middle" font-family="Arial, sans-serif" font-size="16" font-weight="bold" fill="#2c5530">Arbeitsplatz-Organisation</text>
  
  
  <text x="100" y="175" text-anchor="middle" font-family="Arial, sans-serif" font-size="9" fill="#666">Dokumente</text>
  <text x="200" y="175" text-anchor="middle" font-family="Arial, sans-serif" font-size="9" fill="#666">Arbeit</text>
  <text x="300" y="175" text-anchor="middle" font-family="Arial, sans-serif" font-size="9" fill="#666">Material</text>
  
  
  <circle cx="200" cy="100" r="20" fill="rgba(0,0,0,0.7)"/>
  <polygon points="193,90 193,110 210,100" fill="white"/>
</svg>