<svg width="400" height="300" xmlns="http://www.w3.org/2000/svg">
  
  <rect width="400" height="300" fill="#9c27b0"/>
  
  
  
  <ellipse cx="200" cy="180" rx="80" ry="40" fill="white" opacity="0.9"/>
  <ellipse cx="200" cy="175" rx="80" ry="40" fill="#f5f5f5" opacity="0.9"/>
  
  
  <circle cx="160" cy="130" r="15" fill="#8d6e63"/>
  <rect x="150" y="145" width="20" height="30" fill="#1976d2" rx="5"/>
  <rect x="145" y="160" width="30" height="20" fill="#424242" rx="3"/>
  
  
  <circle cx="240" cy="130" r="15" fill="#8d6e63"/>
  <rect x="230" y="145" width="20" height="30" fill="#4caf50" rx="5"/>
  <rect x="225" y="160" width="30" height="20" fill="#424242" rx="3"/>
  
  
  <rect x="180" y="160" width="40" height="25" fill="#616161" rx="3"/>
  <rect x="185" y="165" width="30" height="15" fill="#1976d2" rx="1"/>
  
  
  <rect x="170" y="170" width="25" height="18" fill="white" opacity="0.9" rx="2"/>
  <g opacity="0.6">
    <line x1="175" y1="175" x2="190" y2="175" stroke="#9c27b0" stroke-width="1"/>
    <line x1="175" y1="180" x2="190" y2="180" stroke="#9c27b0" stroke-width="1"/>
    <line x1="175" y1="185" x2="190" y2="185" stroke="#9c27b0" stroke-width="1"/>
    <rect x="177" y="177" width="4" height="3" fill="#4caf50" opacity="0.7"/>
    <rect x="183" y="177" width="4" height="3" fill="#4caf50" opacity="0.7"/>
  </g>
  
  
  <rect x="210" y="170" width="20" height="15" fill="white" opacity="0.9" rx="2"/>
  <rect x="215" y="175" width="10" height="2" fill="#ff9800"/>
  <rect x="215" y="178" width="8" height="2" fill="#4caf50"/>
  <rect x="215" y="181" width="12" height="2" fill="#2196f3"/>
  
  
  <circle cx="120" cy="90" r="18" fill="white" opacity="0.9"/>
  <text x="120" y="96" text-anchor="middle" font-family="Arial, sans-serif" font-size="14" fill="#4caf50">♻</text>
  
  <circle cx="280" cy="90" r="18" fill="white" opacity="0.9"/>
  <text x="280" y="96" text-anchor="middle" font-family="Arial, sans-serif" font-size="14" fill="#4caf50">🌿</text>
  
  
  <path d="M 140 200 Q 150 210 160 200" stroke="white" stroke-width="2" fill="none" opacity="0.7"/>
  <polygon points="157,195 160,200 155,202" fill="white" opacity="0.7"/>
  
  <path d="M 240 200 Q 250 210 260 200" stroke="white" stroke-width="2" fill="none" opacity="0.7"/>
  <polygon points="257,195 260,200 255,202" fill="white" opacity="0.7"/>
  
  
  <rect x="50" y="220" width="30" height="15" fill="white" opacity="0.4" rx="3"/>
  <rect x="90" y="220" width="30" height="15" fill="white" opacity="0.4" rx="3"/>
  <rect x="280" y="220" width="30" height="15" fill="white" opacity="0.4" rx="3"/>
  <rect x="320" y="220" width="30" height="15" fill="white" opacity="0.4" rx="3"/>
  
  
  <rect x="60" y="250" width="40" height="3" fill="white" opacity="0.8"/>
  <line x1="65" y1="248" x2="65" y2="255" stroke="white" stroke-width="1" opacity="0.8"/>
  <line x1="95" y1="248" x2="95" y2="255" stroke="white" stroke-width="1" opacity="0.8"/>
  
  
  <g transform="translate(310,120)">
    <rect x="0" y="0" width="25" height="25" fill="white" opacity="0.8" stroke="#9c27b0" stroke-width="1"/>
    <path d="M 0 0 L 8 -8 L 33 -8 L 25 0 Z" fill="white" opacity="0.6" stroke="#9c27b0" stroke-width="1"/>
    <path d="M 25 0 L 33 -8 L 33 17 L 25 25 Z" fill="white" opacity="0.4" stroke="#9c27b0" stroke-width="1"/>
  </g>
  
  
  <rect x="320" y="180" width="30" height="40" fill="white" opacity="0.9" rx="3"/>
  <circle cx="325" cy="190" r="2" fill="#4caf50"/>
  <line x1="330" y1="190" x2="345" y2="190" stroke="#666" stroke-width="1"/>
  <circle cx="325" cy="200" r="2" fill="#4caf50"/>
  <line x1="330" y1="200" x2="345" y2="200" stroke="#666" stroke-width="1"/>
  <circle cx="325" cy="210" r="2" fill="#ff9800"/>
  <line x1="330" y1="210" x2="345" y2="210" stroke="#666" stroke-width="1"/>
  
  
  <text x="200" y="40" text-anchor="middle" font-family="Arial, sans-serif" font-size="24" font-weight="bold" fill="white">Arbeitsplatz-Beratung</text>
  <text x="200" y="280" text-anchor="middle" font-family="Arial, sans-serif" font-size="14" fill="white" opacity="0.9">Professionelle Büro-Optimierung</text>
</svg>